<?xml version="1.0" encoding="UTF-8"?>
<svg width="120px" height="40px" viewBox="0 0 120 40" version="1.1" xmlns="http://www.w3.org/2000/svg" xmlns:xlink="http://www.w3.org/1999/xlink">
    <g id="Group-2" fill="#222222" fill-rule="nonzero">
        <path d="M9.52503484,2.73558953e-13 L110.479785,2.73558953e-13 C110.838821,2.73558953e-13 111.203652,2.73558953e-13 111.562688,0.00199979585 C111.86708,0.00394959681 112.179263,0.00980899865 112.483655,0.0146885005 C113.153195,0.0221355052 113.821166,0.0812244913 114.481632,0.191430458 C115.144674,0.304339341 115.787172,0.515644741 116.387902,0.818366457 C117.589389,1.4360088 118.56722,2.41507954 119.183871,3.61788067 C119.485235,4.21720276 119.693777,4.85891557 119.802344,5.52100639 C119.913749,6.18273451 119.975725,6.85185297 119.987757,7.52280203 C119.991653,7.82941073 119.991653,8.13699933 119.991653,8.44360803 C119.999445,8.80587105 119.999445,9.16911397 119.999445,9.53528659 L119.999445,30.4618203 C119.999445,30.8309826 119.999445,31.1922457 119.991653,31.5555087 C119.991653,31.865977 119.991653,32.1667463 119.987757,32.4773146 C119.975723,33.1482303 119.913746,33.8173154 119.802344,34.4790102 C119.694078,35.1414871 119.485524,35.7835678 119.183871,36.3831158 C118.877444,36.9798122 118.479102,37.5245211 118.003466,37.997251 C117.531374,38.4740514 116.985924,38.8719663 116.387902,39.1758307 C115.787174,39.4793611 115.144745,39.6919244 114.481632,39.8065663 C113.821051,39.9158767 113.15315,39.9749729 112.483655,39.9833483 C112.179263,39.9901476 111.86708,39.9940472 111.562688,39.9940472 C111.203652,39.996047 110.838821,39.996047 110.479785,39.996047 L9.52503484,39.996047 C9.15872577,39.996047 8.79676229,39.996047 8.43141225,39.9940472 C8.12557195,39.9940472 7.82216918,39.9901476 7.51339185,39.9833483 C6.84262848,39.9745024 6.17346777,39.91541 5.51151897,39.8065663 C4.85053873,39.6927258 4.21040447,39.4801062 3.61256188,39.1758307 C3.01400022,38.8721422 2.46804565,38.4742164 1.99554928,37.997251 C1.51868298,37.5263653 1.12119022,36.9812577 0.818521156,36.3831158 C0.514587081,35.7840036 0.304028091,35.1418716 0.194153398,34.4790102 C0.0829294043,33.8174061 0.0230774495,33.1481722 0.0151346745,32.4773146 C0.00586406198,32.1667463 0.00488505334,31.865977 -0.0002,31.5555087 L-0.0002,8.44360803 C0.00488505334,8.13699933 0.00586406198,7.82941073 0.0151346745,7.52284203 C0.0230750146,6.85195106 0.0829269683,6.18268375 0.194153398,5.52104638 C0.304332328,4.85857231 0.514878869,4.21680865 0.818521156,3.61792066 C1.12132771,3.0178383 1.51876458,2.47051479 1.99554928,1.99699614 C2.46984402,1.52214214 3.01544593,1.12448692 3.61256188,0.818456448 C4.21040901,0.514993167 4.85061229,0.303631632 5.51151897,0.191520449 C6.17335526,0.0817979096 6.8425848,0.0227294833 7.51339185,0.0148284862 C7.82216918,0.00993898538 8.12557195,0.00412957843 8.43141225,0.00212978258 C8.79677228,2.73558953e-13 9.15870579,2.73558953e-13 9.52503484,2.73558953e-13 Z M8.72772024,38.6926979 L110.047615,38.6946576 L111.123291,38.6926979 C111.418804,38.6926979 111.723149,38.6888767 112.0138,38.682214 C112.635256,38.6747481 113.255274,38.6213299 113.868648,38.5224078 C114.444647,38.4259364 115.002639,38.2443328 115.52384,37.9837108 C116.038218,37.725574 116.507113,37.3872883 116.912495,36.9818599 C117.318631,36.5844178 117.658744,36.1262167 117.920297,35.6241437 C118.182826,35.109073 118.363556,34.5571957 118.45615,33.9878689 C118.557482,33.3874092 118.614163,32.780431 118.625738,32.1717998 C118.629608,31.8713915 118.629608,31.5795075 118.629608,31.2608748 C118.637447,30.9106924 118.637447,30.5633514 118.637447,30.2073882 L118.637447,9.70136655 C118.637447,9.34877382 118.637447,8.99905192 118.629608,8.63162494 C118.629608,8.33499868 118.629608,8.03694191 118.62673,7.75946105 C118.614898,7.13977177 118.557257,6.52176256 118.454265,5.91036271 C118.360757,5.34846079 118.181701,4.80375843 117.923174,4.29474217 C117.394536,3.27681554 116.556568,2.44772694 115.526718,1.92368195 C115.004069,1.66449948 114.445254,1.48358777 113.868648,1.38689562 C113.258868,1.28809206 112.642409,1.23483885 112.024517,1.22758908 L111.118429,1.21514555 L8.72820648,1.21514555 L7.83281492,1.22710898 C7.20925082,1.23473782 6.58714113,1.2884704 5.97170597,1.38785583 C5.40087841,1.48335015 4.84782708,1.66300828 4.33108094,1.92081112 C3.81702029,2.18084568 3.34745495,2.51889546 2.93950877,2.92263264 C2.53110354,3.32256985 2.19092604,3.78511981 1.93216349,4.29235144 C1.66944326,4.80490608 1.48758233,5.35408813 1.39287643,5.92088582 C1.29109615,6.52730994 1.23618472,7.14050046 1.22861745,7.75514991 C1.22281237,7.95417776 1.21384025,8.63162494 1.21384025,8.63162494 L1.21384025,31.2656759 C1.21384025,31.2656759 1.22227652,31.9536951 1.22856784,32.1603361 C1.23647106,32.7759607 1.29170366,33.3901043 1.39378937,33.997471 C1.48832078,34.5627202 1.67004103,35.1103232 1.93261996,35.6212043 C2.19233703,36.1287865 2.53441368,36.5909913 2.945294,36.9895024 C3.35031179,37.3927637 3.81837987,37.7290816 4.33156718,37.9855725 C4.84950369,38.2442063 5.40360219,38.4251407 5.97558594,38.5224078 C6.58900654,38.6208048 7.20896398,38.6742195 7.8303738,38.682214 C8.13034268,38.6888767 8.42537972,38.6926979 8.72772024,38.6926979 Z" id="Combined-Shape"></path>
        <g id="_Group_2" transform="translate(10.617095, 7.242364)">
            <path d="M15.6319305,12.5954289 C15.6541424,10.8715041 16.557922,9.27912258 18.0266289,8.37617739 C17.0958789,7.04690274 15.5928226,6.2343291 13.970882,6.18358277 C12.2644622,6.00446263 10.6101758,7.20467503 9.74059791,7.20467503 C8.8542122,7.20467503 7.51539423,6.20136775 6.07369701,6.23102566 C4.176811,6.2923106 2.45126831,7.34465581 1.5283941,9.00303924 C-0.436855736,12.4056378 1.02904664,17.4063338 2.91162565,20.1567611 C3.8535259,21.5035628 4.95432809,23.0079667 6.39472564,22.9546216 C7.804234,22.8961559 8.33065958,22.0558254 10.0320468,22.0558254 C11.7176523,22.0558254 12.2115372,22.9546216 13.6811627,22.9207031 C15.1936383,22.8961559 16.1465515,21.567921 17.0554225,20.2083669 C17.732177,19.2487241 18.2529381,18.1881095 18.598416,17.0658101 C16.8020581,16.3060392 15.6340211,14.5458517 15.6319305,12.5954289 Z" id="_Path_"></path>
            <path d="M12.8561059,4.37472347 C13.6807728,3.38475024 14.0870567,2.11230338 13.9886767,0.827607338 C12.7287806,0.959934345 11.5649892,1.56208222 10.7291886,2.51407276 C9.9038728,3.45334053 9.48577009,4.68215483 9.56696962,5.92986345 C10.8437535,5.94300611 12.0560321,5.36982738 12.8561059,4.37472347 Z" id="_Path_2"></path>
        </g>
        <g id="Group" transform="translate(33.751183, 17.014330)">
            <path d="M8.05400894,9.90843142 L3.42854659,9.90843142 L2.31774768,13.1883429 L0.358585779,13.1883429 L4.73974898,1.05351565 L6.77524948,1.05351565 L11.1564127,13.1883429 L9.1638502,13.1883429 L8.05400894,9.90843142 Z M3.90760745,8.39492003 L7.57404906,8.39492003 L5.76661647,3.07186635 L5.71603678,3.07186635 L3.90760745,8.39492003 Z" id="Shape"></path>
            <path d="M20.6172783,8.76518959 C20.6172783,11.5145127 19.145757,13.280903 16.9251169,13.280903 C15.7772874,13.3409465 14.6960947,12.739742 14.1414453,11.7330236 L14.0994259,11.7330236 L14.0994259,16.1151444 L12.2834037,16.1151444 L12.2834037,4.3410786 L14.0412436,4.3410786 L14.0412436,5.81259986 L14.0746442,5.81259986 C14.6539344,4.81219281 15.736293,4.21124712 16.8917163,4.24850876 C19.1371675,4.24851853 20.6172783,6.02349842 20.6172783,8.76518959 Z M18.7506765,8.76518959 C18.7506765,6.97398823 17.8250074,5.79637839 16.4126554,5.79637839 C15.0251144,5.79637839 14.0918135,6.99878948 14.0918135,8.76518959 C14.0918135,10.5478112 15.0251144,11.7416327 16.4126554,11.7416327 C17.8250172,11.7416327 18.7506765,10.5726222 18.7506765,8.76518959 Z" id="Shape"></path>
            <path d="M30.3553648,8.76518959 C30.3553648,11.5145127 28.8838435,13.280903 26.6632034,13.280903 C25.5153739,13.3409465 24.4341812,12.739742 23.8795319,11.7330236 L23.8375124,11.7330236 L23.8375124,16.1151444 L22.0210407,16.1151444 L22.0210407,4.3410786 L23.7793301,4.3410786 L23.7793301,5.81259986 L23.8127307,5.81259986 C24.392021,4.81219281 25.4743795,4.21124712 26.6298028,4.24850876 C28.875254,4.24851853 30.3553648,6.02349842 30.3553648,8.76518959 Z M28.4887727,8.76518959 C28.4887727,6.97398823 27.5630939,5.79637839 26.1507419,5.79637839 C24.763201,5.79637839 23.8299,6.99878948 23.8299,8.76518959 C23.8299,10.5478112 24.763201,11.7416327 26.1507419,11.7416327 C27.5631037,11.7416327 28.4887727,10.5726222 28.4887727,8.76518959 L28.4887727,8.76518959 Z" id="Shape"></path>
            <path d="M36.7911229,9.80727203 C36.9256829,11.0106408 38.0947032,11.8007531 39.6921753,11.8007531 C41.2228658,11.8007531 42.3241175,11.0106017 42.3241175,9.92556168 C42.3241175,8.9836712 41.6599268,8.41970173 40.0872559,8.03320093 L38.5145459,7.6543809 C36.2862739,7.11616057 35.2518135,6.07406835 35.2518135,4.38305896 C35.2518135,2.28933709 37.0764252,0.851216407 39.6673252,0.851216407 C42.2314891,0.851216407 43.9893191,2.28933709 44.0484884,4.38305896 L42.2152676,4.38305896 C42.1055284,3.17205831 41.1044687,2.44107617 39.641537,2.44107617 C38.1786053,2.44107617 37.1775553,3.18065764 37.1775553,4.25709832 C37.1775553,5.11500852 37.816935,5.61982828 39.3810164,6.00628022 L40.7179777,6.33455964 C43.207728,6.92335968 44.2421883,7.9234813 44.2421883,9.69844165 C44.2421883,11.9687039 42.4337981,13.3906031 39.5575567,13.3906031 C36.8664452,13.3906031 35.0494752,12.0021044 34.9320944,9.80722317 L36.7911229,9.80727203 Z" id="Path"></path>
            <path d="M48.1624861,2.24735672 L48.1624861,4.3410786 L49.8449059,4.3410786 L49.8449059,5.77919928 L48.1624861,5.77919928 L48.1624861,10.6565927 C48.1624861,11.4143011 48.499355,11.7673916 49.2389267,11.7673916 C49.4386573,11.7639088 49.6380648,11.7498828 49.8363163,11.7253721 L49.8363163,13.1549033 C49.503804,13.217033 49.1658332,13.2451713 48.8276247,13.2388835 C47.0364233,13.2388835 46.3378743,12.5661032 46.3378743,10.8502828 L46.3378743,5.77919928 L45.051483,5.77919928 L45.051483,4.3410786 L46.3378743,4.3410786 L46.3378743,2.24735672 L48.1624861,2.24735672 Z" id="Path"></path>
            <path d="M50.8182816,8.76518959 C50.8182816,5.98151806 52.4577537,4.23229707 55.0143149,4.23229707 C57.579456,4.23229707 59.2112961,5.98147897 59.2112961,8.76518959 C59.2112961,11.5565028 57.5880456,13.2980821 55.0143149,13.2980821 C52.4415518,13.2980821 50.8182816,11.556493 50.8182816,8.76518959 Z M57.3609157,8.76518959 C57.3609157,6.85564973 56.4858264,5.72862935 55.0143052,5.72862935 C53.5427839,5.72862935 52.6686522,6.86423928 52.6686522,8.76518959 C52.6686522,10.6823614 53.5427839,11.8008019 55.0143052,11.8008019 C56.4858264,11.8008019 57.3609157,10.6823614 57.3609157,8.76518959 L57.3609157,8.76518959 Z" id="Shape"></path>
            <path d="M60.7085763,4.3410786 L62.4406279,4.3410786 L62.4406279,5.84693854 L62.4826474,5.84693854 C62.724187,4.87754819 63.6124162,4.21038007 64.6107177,4.24849899 C64.8199981,4.24776827 65.028701,4.27049642 65.2329183,4.3162578 L65.2329183,6.01489909 C64.9687146,5.93416636 64.6931048,5.89709931 64.4169592,5.90515992 C63.8830661,5.88350078 63.366376,6.09627488 63.0025565,6.48761401 C62.638737,6.87895315 62.4641359,7.40976001 62.5245984,7.94066042 L62.5245984,13.1883234 L60.7085763,13.1883234 L60.7085763,4.3410786 Z" id="Path"></path>
            <path d="M73.6049036,10.5897915 C73.3606044,12.195863 71.7965133,13.2980723 69.7953613,13.2980723 C67.2216307,13.2980723 65.6241488,11.5736624 65.6241488,8.80716995 C65.6241488,6.03208798 67.2302202,4.2322873 69.7190227,4.2322873 C72.1667829,4.2322873 73.7060629,5.91374947 73.7060629,8.59627138 L73.7060629,9.218472 L67.45735,9.218472 L67.45735,9.32821117 C67.3990089,9.98687258 67.6264457,10.638856 68.0818079,11.118318 C68.5371701,11.59778 69.1765686,11.8585086 69.8373612,11.834183 C70.7186384,11.9167557 71.5495103,11.4107028 71.8805034,10.5897817 L73.6049036,10.5897915 Z M67.4659419,7.94926952 L71.8891027,7.94926952 C71.9220591,7.35741818 71.7066176,6.77864965 71.2946838,6.35240476 C70.8827501,5.92615988 70.3116737,5.69108586 69.7190422,5.70381833 C69.1217245,5.70025376 68.5477294,5.93543667 68.1246376,6.35709353 C67.7015458,6.77875039 67.4644141,7.3519431 67.4659419,7.94926952 L67.4659419,7.94926952 Z" id="Shape"></path>
        </g>
        <path d="M34.7347565,9.14592216 L36.9327253,9.14592216 C38.7383503,9.14592216 39.7972565,10.2596722 39.7972565,12.1749847 C39.7972565,14.1113909 38.7467878,15.2335784 36.9327253,15.2335784 L34.7347565,15.2335784 L34.7347565,9.14592216 Z M35.6797565,9.96014091 L35.6797565,14.4193597 L36.8272565,14.4193597 C38.101319,14.4193597 38.8353815,13.6051409 38.8353815,12.1876409 C38.8353815,10.7827972 38.0886628,9.96014091 36.8272565,9.96014091 L35.6797565,9.96014091 Z M43.175785,15.3221722 C41.8300037,15.3221722 41.0073475,14.4235784 41.0073475,12.9427972 C41.0073475,11.4662347 41.8342225,10.5634222 43.175785,10.5634222 C44.5131287,10.5634222 45.3400037,11.4620159 45.3400037,12.9427972 C45.3400037,14.4235784 44.5173475,15.3221722 43.175785,15.3221722 Z M43.175785,14.5501409 C43.9604725,14.5501409 44.40766,13.9595159 44.40766,12.9427972 C44.40766,11.9218597 43.9604725,11.3312347 43.175785,11.3312347 C42.3868787,11.3312347 41.94391,11.9218597 41.94391,12.9427972 C41.94391,13.9637347 42.3868787,14.5501409 43.175785,14.5501409 Z M52.4985321,10.6520159 L51.2371259,15.2335784 L50.2963446,15.2335784 L49.3471259,11.8163909 L49.2754071,11.8163909 L48.3304071,15.2335784 L47.3980634,15.2335784 L46.1324384,10.6520159 L47.0521259,10.6520159 L47.8747821,14.1873284 L47.9422821,14.1873284 L48.8872821,10.6520159 L49.7563446,10.6520159 L50.7013446,14.1873284 L50.7730634,14.1873284 L51.5915009,10.6520159 L52.4985321,10.6520159 Z M53.7001855,15.2335784 L53.7001855,10.6520159 L54.5734668,10.6520159 L54.5734668,11.3776409 L54.6409668,11.3776409 C54.8645605,10.8713909 55.3201855,10.5634222 56.0120605,10.5634222 C57.0372168,10.5634222 57.6025293,11.1751409 57.6025293,12.2677972 L57.6025293,15.2335784 L56.695498,15.2335784 L56.695498,12.4829534 C56.695498,11.7235784 56.374873,11.3523284 55.7040918,11.3523284 C55.0333105,11.3523284 54.6072168,11.8079534 54.6072168,12.5462347 L54.6072168,15.2335784 L53.7001855,15.2335784 Z M59.1838702,15.2335784 L59.1838702,8.85482841 L60.0909014,8.85482841 L60.0909014,15.2335784 L59.1838702,15.2335784 Z M63.6550549,15.3221722 C62.3092736,15.3221722 61.4866174,14.4235784 61.4866174,12.9427972 C61.4866174,11.4662347 62.3134924,10.5634222 63.6550549,10.5634222 C64.9923986,10.5634222 65.8192736,11.4620159 65.8192736,12.9427972 C65.8192736,14.4235784 64.9966174,15.3221722 63.6550549,15.3221722 Z M63.6550549,14.5501409 C64.4397424,14.5501409 64.8869299,13.9595159 64.8869299,12.9427972 C64.8869299,11.9218597 64.4397424,11.3312347 63.6550549,11.3312347 C62.8661486,11.3312347 62.4231799,11.9218597 62.4231799,12.9427972 C62.4231799,13.9637347 62.8661486,14.5501409 63.6550549,14.5501409 Z M68.4426458,15.3095159 C67.5567083,15.3095159 66.9112395,14.7779534 66.9112395,13.9426409 C66.9112395,13.1199847 67.527177,12.6432659 68.6198333,12.5757659 L69.8643645,12.4998284 L69.8643645,12.0990472 C69.8643645,11.5970159 69.5437395,11.3143597 68.9235833,11.3143597 C68.4173333,11.3143597 68.067177,11.5042034 67.965927,11.8374847 L67.088427,11.8374847 C67.1812395,11.0654534 67.9237395,10.5634222 68.9657708,10.5634222 C70.1174895,10.5634222 70.767177,11.1371722 70.767177,12.0990472 L70.767177,15.2335784 L69.8938958,15.2335784 L69.8938958,14.5838909 L69.822177,14.5838909 C69.5479583,15.0479534 69.045927,15.3095159 68.4426458,15.3095159 Z M68.674677,14.5796722 C69.3581145,14.5796722 69.8643645,14.1324847 69.8643645,13.5418597 L69.8643645,13.1452972 L68.742177,13.2212347 C68.1093645,13.2634222 67.8224895,13.4870159 67.8224895,13.9046722 C67.8224895,14.3307659 68.1810833,14.5796722 68.674677,14.5796722 Z M74.0022679,15.3095159 C72.8336742,15.3095159 72.0953929,14.3898284 72.0953929,12.9385784 C72.0953929,11.4957659 72.8421117,10.5718597 74.0022679,10.5718597 C74.6308617,10.5718597 75.1624242,10.8756097 75.4113304,11.3776409 L75.4788304,11.3776409 L75.4788304,8.85482841 L76.3858617,8.85482841 L76.3858617,15.2335784 L75.5167992,15.2335784 L75.5167992,14.5079534 L75.4450804,14.5079534 C75.1708617,15.0099847 74.6350804,15.3095159 74.0022679,15.3095159 Z M74.2596117,11.3481097 C73.4960179,11.3481097 73.0319554,11.9513909 73.0319554,12.9427972 C73.0319554,13.9384222 73.4917992,14.5332659 74.2596117,14.5332659 C75.0232054,14.5332659 75.4957054,13.9299847 75.4957054,12.9427972 C75.4957054,11.9640472 75.0189867,11.3481097 74.2596117,11.3481097 Z M82.577606,15.3221722 C81.2318248,15.3221722 80.4091685,14.4235784 80.4091685,12.9427972 C80.4091685,11.4662347 81.2360435,10.5634222 82.577606,10.5634222 C83.9149498,10.5634222 84.7418248,11.4620159 84.7418248,12.9427972 C84.7418248,14.4235784 83.9191685,15.3221722 82.577606,15.3221722 Z M82.577606,14.5501409 C83.3622935,14.5501409 83.809481,13.9595159 83.809481,12.9427972 C83.809481,11.9218597 83.3622935,11.3312347 82.577606,11.3312347 C81.7886998,11.3312347 81.345731,11.9218597 81.345731,12.9427972 C81.345731,13.9637347 81.7886998,14.5501409 82.577606,14.5501409 Z M86.0953532,15.2335784 L86.0953532,10.6520159 L86.9686344,10.6520159 L86.9686344,11.3776409 L87.0361344,11.3776409 C87.2597282,10.8713909 87.7153532,10.5634222 88.4072282,10.5634222 C89.4323844,10.5634222 89.9976969,11.1751409 89.9976969,12.2677972 L89.9976969,15.2335784 L89.0906657,15.2335784 L89.0906657,12.4829534 C89.0906657,11.7235784 88.7700407,11.3523284 88.0992594,11.3523284 C87.4284782,11.3523284 87.0023844,11.8079534 87.0023844,12.5462347 L87.0023844,15.2335784 L86.0953532,15.2335784 Z M94.4850663,9.49607841 L95.3920975,9.49607841 L95.3920975,10.6646722 L96.3877225,10.6646722 L96.3877225,11.3902972 L95.3920975,11.3902972 L95.3920975,13.8076409 C95.3920975,14.3012347 95.5903788,14.5163909 96.041785,14.5163909 C96.1810038,14.5163909 96.26116,14.5079534 96.3877225,14.4952972 L96.3877225,15.2167034 C96.2400663,15.2420159 96.0713163,15.2631097 95.8941288,15.2631097 C94.8858475,15.2631097 94.4850663,14.9087347 94.4850663,14.0270159 L94.4850663,11.3902972 L93.7552225,11.3902972 L93.7552225,10.6646722 L94.4850663,10.6646722 L94.4850663,9.49607841 Z M97.7623447,15.2335784 L97.7623447,8.85482841 L98.6609384,8.85482841 L98.6609384,11.3818597 L98.7326572,11.3818597 C98.9562509,10.8713909 99.4414072,10.5676409 100.133282,10.5676409 C101.112032,10.5676409 101.715313,11.1877972 101.715313,12.2720159 L101.715313,15.2335784 L100.808282,15.2335784 L100.808282,12.4871722 C100.808282,11.7320159 100.466563,11.3565472 99.8253134,11.3565472 C99.0828134,11.3565472 98.6693759,11.8332659 98.6693759,12.5504534 L98.6693759,15.2335784 L97.7623447,15.2335784 Z M106.266654,14.0059222 L107.139936,14.0059222 C106.941654,14.8159222 106.199154,15.3221722 105.148686,15.3221722 C103.832436,15.3221722 103.026654,14.4151409 103.026654,12.9512347 C103.026654,11.4957659 103.849311,10.5634222 105.144467,10.5634222 C106.422748,10.5634222 107.194779,11.4367034 107.194779,12.8710784 L107.194779,13.1832659 L103.950561,13.1832659 L103.950561,13.2254534 C103.980092,14.0565472 104.448373,14.5796722 105.173998,14.5796722 C105.722436,14.5796722 106.097904,14.3771722 106.266654,14.0059222 Z M105.140248,11.3017034 C104.469467,11.3017034 104.001186,11.7910784 103.950561,12.5293597 L106.270873,12.5293597 C106.249779,11.7868597 105.811029,11.3017034 105.140248,11.3017034 Z" id="Downloadonthe"></path>
    </g>
</svg>