<?xml version="1.0" encoding="UTF-8"?>
<svg width="126px" height="40px" viewBox="0 0 126 40" version="1.1" xmlns="http://www.w3.org/2000/svg" xmlns:xlink="http://www.w3.org/1999/xlink">
    <g id="UO_UI-WEB_SOCIAL-FOOTER_APP_GOOGLE-ICON" stroke="none" stroke-width="1" fill="none" fill-rule="evenodd">
        <path d="M9.51829639,1.63424829e-13 L116.48517,1.63424829e-13 C116.843952,1.63424829e-13 117.208526,1.63424829e-13 117.567308,0.0019983811 C117.871484,0.00394680268 118.183448,0.00980205931 118.487624,0.0146781092 C119.15669,0.0221198455 119.824188,0.0811670294 120.484187,0.191295031 C121.14676,0.304124038 121.788803,0.51527995 122.389108,0.817787507 C123.589745,1.4349929 124.566884,2.413371 125.183099,3.61532121 C125.48425,4.21421932 125.692644,4.85547815 125.801135,5.51710057 C125.912461,6.17836055 125.974393,6.84700565 125.986416,7.51748005 C125.990309,7.82387184 125.99031,8.13124284 125.99031,8.43763463 C125.998096,8.79964137 125.998096,9.16262731 125.998096,9.52854088 L125.998096,30.4402702 C125.998096,30.8091713 125.998096,31.1701789 125.99031,31.5331848 C125.99031,31.8434335 125.990309,32.14399 125.986416,32.4543386 C125.97439,33.1247797 125.912458,33.7933914 125.801135,34.4546182 C125.692946,35.1166263 125.484539,35.7582528 125.183099,36.3573767 C124.876888,36.9536509 124.478828,37.4979745 124.003529,37.97037 C123.531771,38.4468331 122.986707,38.8444665 122.389108,39.1481159 C121.788805,39.4514316 121.14683,39.6638445 120.484187,39.7784053 C119.824074,39.8876383 119.156646,39.9466927 118.487624,39.9550622 C118.183448,39.9618567 117.871484,39.9657536 117.567308,39.9657536 C117.208526,39.9677519 116.843952,39.9677519 116.48517,39.9677519 L9.51829639,39.9677519 C9.15224646,39.9677519 8.79053906,39.9677519 8.42544748,39.9657536 C8.11982354,39.9657536 7.81663541,39.9618567 7.50807653,39.9550622 C6.83778769,39.9462226 6.16910037,39.8871719 5.50761987,39.7784053 C4.84710723,39.6646453 4.20742583,39.4521762 3.61000618,39.1481159 C3.01186798,38.8446422 2.46629964,38.446998 1.99413754,37.97037 C1.51760859,37.4998174 1.12039704,36.9550954 0.817942096,36.3573767 C0.514223038,35.7586884 0.303813007,35.1170106 0.194016045,34.4546182 C0.0828707362,33.7934821 0.0230611235,33.1247217 0.0151239675,32.4543386 C0.00585991347,32.14399 0.00488159742,31.8434335 2.84217094e-14,31.5331848 L2.84217094e-14,8.43763463 C0.00488159742,8.13124284 0.00585991347,7.82387184 0.0151239675,7.51752002 C0.0230586903,6.84710367 0.082868302,6.17830983 0.194016045,5.51714054 C0.304117029,4.85513513 0.51451462,4.21382548 0.817942096,3.61536118 C1.12053443,3.01570334 1.51769013,2.46876704 1.99413754,1.99558337 C2.46809674,1.52106531 3.01331267,1.1236914 3.61000618,0.817877434 C4.20743037,0.514628837 4.84718075,0.303416829 5.50761987,0.191384958 C6.16898794,0.0817400419 6.83774404,0.0227134034 7.50807653,0.0148179959 C7.81663541,0.00993195408 8.11982354,0.00412665698 8.42544748,0.00212827587 C8.79054904,1.63424829e-13 9.15222649,1.63424829e-13 9.51829639,1.63424829e-13 Z M8.71819364,38.6714735 L116.084124,38.6734324 L117.159381,38.6714735 C117.454779,38.6714735 117.759005,38.6676538 118.049543,38.6609937 C118.670757,38.6535307 119.290532,38.6001333 119.903667,38.5012498 C120.479441,38.4048161 121.037215,38.2232834 121.558213,37.9627631 C122.072391,37.7047269 122.541102,37.3665733 122.946326,36.9613031 C123.352304,36.564016 123.692283,36.1059937 123.953734,35.6041167 C124.216161,35.0892469 124.396821,34.5375849 124.489379,33.9684803 C124.590671,33.3682549 124.64733,32.7615135 124.658901,32.1531198 C124.66277,31.8528287 124.662769,31.5610586 124.662769,31.2425503 C124.670605,30.8925045 124.670605,30.5452991 124.670605,30.1894747 L124.670605,9.69145447 C124.670605,9.33899932 124.670605,8.98941387 124.662769,8.62213026 C124.662769,8.32561975 124.662769,8.02767928 124.659892,7.75030669 C124.648065,7.13085921 124.590446,6.51309115 124.487494,5.90192986 C124.394023,5.3402472 124.215037,4.79575737 123.956611,4.28693973 C123.428179,3.2694103 122.590538,2.4406452 121.56109,1.91680469 C121.038645,1.65772335 120.480048,1.47688224 119.903667,1.38022781 C119.294125,1.28146281 118.677907,1.22823038 118.060256,1.22098343 L117.154521,1.20854476 L8.71867969,1.20854476 L7.8236375,1.22050352 C7.20031672,1.22812939 6.57844978,1.281841 5.96325475,1.38118765 C5.39264993,1.47664471 4.8398144,1.65623274 4.32326989,1.91393498 C3.80940983,2.17386808 3.34002772,2.51178595 2.93224071,2.91536559 C2.52399484,3.31514675 2.18395008,3.77751623 1.9252885,4.28454994 C1.66267078,4.79690457 1.48088081,5.34587234 1.38621187,5.91244886 C1.28447129,6.51863636 1.2295813,7.13158762 1.22201698,7.74599723 C1.21621416,7.94494742 1.20744546,8.62213026 1.20744546,8.62213026 L1.20744546,31.2473494 C1.20744546,31.2473494 1.21567852,31.9351003 1.22196738,32.1416606 C1.22986752,32.757045 1.28507857,33.3709489 1.38712445,33.9780786 C1.48161897,34.5431073 1.66326831,35.0904966 1.92574479,35.6011784 C2.18536052,36.1085626 2.52730368,36.570587 2.93802369,36.9689426 C3.34288343,37.3720465 3.81076887,37.7082332 4.32375594,37.964624 C4.84149035,38.2231568 5.39537265,38.4040207 5.96713322,38.5012498 C6.58031446,38.5996084 7.20002999,38.6530023 7.82119735,38.6609937 C8.12104917,38.6676538 8.41597109,38.6714735 8.71819364,38.6714735 Z" id="Combined-Shape" fill="#222222" fill-rule="nonzero"></path>
        <path d="M97.9601873,29.4007299 L99.7026184,29.4007299 L99.7026184,17.7443861 L97.9601873,17.7443861 L97.9601873,29.4007299 Z M113.366972,21.940694 L111.441161,26.9762232 L111.349446,26.9762232 L109.331871,21.940694 L107.497725,21.940694 L110.524063,29.0276978 L108.781682,32.9442318 L110.524063,32.9442318 L115.201167,21.940694 L113.366972,21.940694 Z M103.737719,28.0951682 C103.18748,28.0951682 102.362147,27.8154949 102.362147,27.0694309 C102.362147,26.1369516 103.37091,25.8571776 104.196293,25.8571776 C104.929911,25.8571776 105.29677,26.0436936 105.755294,26.2302096 C105.571865,27.3492049 104.654817,28.0951682 103.737719,28.0951682 L103.737719,28.0951682 Z M103.921149,21.66092 C102.637242,21.66092 101.353335,22.2204176 100.894811,23.4327213 L102.453812,24.085477 C102.820671,23.4327213 103.37091,23.2462053 104.012863,23.2462053 C104.929911,23.2462053 105.755245,23.805703 105.847009,24.7381823 L105.847009,24.8314403 C105.571865,24.6449746 104.838246,24.3652006 104.104529,24.3652006 C102.453812,24.3652006 100.803046,25.2977303 100.803046,26.9762232 C100.803046,28.5614582 102.178718,29.5871955 103.646054,29.5871955 C104.838246,29.5871955 105.388436,29.0276978 105.847009,28.4682505 L105.938674,28.4682505 L105.938674,29.4007299 L107.589391,29.4007299 L107.589391,24.9246983 C107.406011,22.8731733 105.847009,21.66092 103.921149,21.66092 L103.921149,21.66092 Z M93.3747982,23.339413 L90.8986989,23.339413 L90.8986989,19.3296714 L93.3747982,19.3296714 C94.6587052,19.3296714 95.3923734,20.4486667 95.3923734,21.2879383 C95.3006586,22.3136756 94.5669904,23.339413 93.3747982,23.339413 L93.3747982,23.339413 Z M93.2830835,17.7443861 L89.1562679,17.7443861 L89.1562679,29.4007299 L90.8986989,29.4007299 L90.8986989,25.0179563 L93.2830835,25.0179563 C95.2089439,25.0179563 97.0430897,23.619187 97.0430897,21.381146 C97.0430897,19.1431554 95.2089439,17.7443861 93.2830835,17.7443861 L93.2830835,17.7443861 Z M70.9064755,28.0951682 C69.7142832,28.0951682 68.7055204,27.0694309 68.7055204,25.6707119 C68.7055204,24.2719426 69.7142832,23.2462053 70.9064755,23.2462053 C72.0986678,23.2462053 73.0157654,24.2719426 73.0157654,25.6707119 C73.0157654,27.0694309 72.0986678,28.0951682 70.9064755,28.0951682 L70.9064755,28.0951682 Z M72.9240507,22.5934497 C72.4655266,22.12721 71.7318584,21.66092 70.8148103,21.66092 C68.8889003,21.66092 67.0548041,23.4327213 67.0548041,25.6707119 C67.0548041,27.9087025 68.7971856,29.5871955 70.8148103,29.5871955 C71.7318584,29.5871955 72.4655266,29.1210062 72.832336,28.6547162 L72.9240012,28.6547162 L72.9240012,29.2142138 C72.9240012,30.7062412 72.0986678,31.5455128 70.8147608,31.5455128 C69.8059979,31.5455128 69.0723297,30.7994992 68.8889003,30.1467435 L67.4216134,30.7994992 C67.8801375,31.8252365 68.9806645,33.1307478 70.9064755,33.1307478 C72.9240012,33.1307478 74.574767,31.9184945 74.574767,29.0277482 L74.574767,21.940694 L72.9240012,21.940694 L72.9240012,22.5934497 L72.9240507,22.5934497 Z M75.6752446,29.4007299 L77.4177251,29.4007299 L77.4177251,17.7443861 L75.6752446,17.7443861 L75.6752446,29.4007299 Z M79.9854896,25.5774036 C79.9854896,24.085477 81.1776818,23.2462053 82.0030648,23.2462053 C82.6450182,23.2462053 83.2869717,23.619187 83.4703516,24.085477 L79.9854896,25.5774036 Z M85.3045469,24.2719426 C84.9376881,23.339413 84.0206399,21.754178 82.0030648,21.754178 C79.9854896,21.754178 78.3347732,23.339413 78.3347732,25.7639699 C78.3347732,28.0019605 79.9854896,29.7737115 82.1864942,29.7737115 C83.9289252,29.7737115 85.0294523,28.6547162 85.3962616,28.0019605 L84.1123547,27.0694309 C83.6537811,27.7221865 83.1035423,28.1884765 82.1864942,28.1884765 C81.2693965,28.1884765 80.7192073,27.8154949 80.2606337,26.9762232 L85.4879764,24.7381823 L85.3045469,24.2719426 Z M43.6693838,22.9664313 L43.6693838,24.6449243 L47.6128194,24.6449243 C47.5211047,25.5774036 47.1542458,26.3234676 46.6957713,26.7897072 C46.145483,27.3492049 45.2284349,28.0019605 43.6693838,28.0019605 C41.1932845,28.0019605 39.3591387,26.0436936 39.3591387,23.525929 C39.3591387,21.0081643 41.2849992,19.0498974 43.6693838,19.0498974 C44.9532907,19.0498974 45.9620536,19.609395 46.6957713,20.262201 L47.8879636,19.0498974 C46.8791512,18.1173677 45.5952442,17.3714044 43.7610985,17.3714044 C40.4596658,17.3714044 37.6167077,20.1688927 37.6167077,23.525929 C37.6167077,26.8829652 40.4596658,29.6805039 43.7610985,29.6805039 C45.5952442,29.6805039 46.8791512,29.1210062 47.9796288,27.9087025 C49.0801063,26.7897072 49.4469652,25.2044219 49.4469652,23.9921686 C49.4469652,23.619187 49.4469652,23.2462053 49.3552505,22.9664313 L43.6693838,22.9664313 Z M53.8489249,28.0951682 C52.6567326,28.0951682 51.6479698,27.0694309 51.6479698,25.6707119 C51.6479698,24.2719426 52.6567326,23.2462053 53.8489249,23.2462053 C55.0411172,23.2462053 56.04988,24.1786846 56.04988,25.6707119 C56.04988,27.0694309 55.0411172,28.0951682 53.8489249,28.0951682 L53.8489249,28.0951682 Z M53.8489249,21.754178 C51.6479698,21.754178 49.9054892,23.4327213 49.9054892,25.7639699 C49.9054892,28.0019605 51.6479698,29.7737115 53.8489249,29.7737115 C56.04988,29.7737115 57.7923606,28.0951682 57.7923606,25.7639699 C57.7923606,23.339413 56.04988,21.754178 53.8489249,21.754178 L53.8489249,21.754178 Z M62.3777002,28.0951682 C61.1855079,28.0951682 60.1766956,27.0694309 60.1766956,25.6707119 C60.1766956,24.2719426 61.1855079,23.2462053 62.3777002,23.2462053 C63.5698925,23.2462053 64.5787048,24.1786846 64.5787048,25.6707119 C64.5787048,27.0694309 63.5698925,28.0951682 62.3777002,28.0951682 L62.3777002,28.0951682 Z M62.3777002,21.754178 C60.1766956,21.754178 58.4343141,23.4327213 58.4343141,25.7639699 C58.4343141,28.0019605 60.1766956,29.7737115 62.3777002,29.7737115 C64.5787048,29.7737115 66.3210863,28.0951682 66.3210863,25.7639699 C66.3210863,23.339413 64.5787048,21.754178 62.3777002,21.754178 L62.3777002,21.754178 Z" id="Fill-9" fill="#222222"></path>
        <path d="M21.6024487,19.0685645 L25.3912777,15.1761896 L11.9482633,7.26044169 C11.1771035,6.81876878 10.5642961,6.86662056 10.1094902,7.25279367 L21.6024487,19.0685645 Z" id="Fill-11" fill="#222222"></path>
        <path d="M9.6262037,7.67334696 C9.46309845,7.97004122 9.40417693,8.37716811 9.40417693,8.84666702 L9.40417693,30.701382 C9.40417693,31.194484 9.53336072,31.6188059 9.73764551,31.9184906 L21.1593981,19.8592253 L9.6262037,7.67334696 Z" id="Fill-12" fill="#222222"></path>
        <path d="M30.511761,18.4501474 L26.035218,15.9166958 L22.0998158,19.8023395 L26.0192466,23.6751418 L30.511761,21.1652496 C31.8347366,20.4162507 31.8347366,19.1991464 30.511761,18.4501474" id="Fill-13" fill="#222222"></path>
        <path d="M21.5812243,20.6444988 L10.1094902,32.5262249 C10.5642194,32.8705236 11.1680775,32.8353149 11.9225836,32.4868058 L25.3912777,24.593566 L21.5812243,20.6444988 Z" id="Fill-14" fill="#222222"></path>
        <path d="M43.5707058,13.0691157 C42.888465,13.4336719 42.1255125,13.6159472 41.2818254,13.6159472 C40.8547739,13.6159472 40.4628819,13.546943 40.1061376,13.4089324 C39.7493934,13.2709219 39.4421292,13.0756269 39.1843359,12.8230415 C38.9265426,12.5704562 38.7247378,12.2670979 38.5789153,11.9129576 C38.4330928,11.5588174 38.3601827,11.1656234 38.3601827,10.7333639 C38.3601827,10.2906886 38.4330928,9.88838086 38.5789153,9.52642867 C38.7247378,9.16447647 38.9265426,8.85591035 39.1843359,8.60072103 C39.4421292,8.34553171 39.7493934,8.14893473 40.1061376,8.01092418 C40.4628819,7.87291363 40.8547739,7.80390939 41.2818254,7.80390939 C41.7036689,7.80390939 42.0994668,7.8546861 42.4692309,7.95624103 C42.8389951,8.05779596 43.1696946,8.23876934 43.4613395,8.4991666 L42.7348348,9.23348321 C42.5577647,9.06162102 42.3429402,8.92882041 42.0903548,8.83507739 C41.8377695,8.74133438 41.5708663,8.69446357 41.2896372,8.69446357 C41.0032003,8.69446357 40.7441089,8.74524028 40.5123553,8.84679521 C40.2806017,8.94835014 40.0814008,9.08896255 39.9147466,9.26863667 C39.7480923,9.44831078 39.6191976,9.65792743 39.5280586,9.89749291 C39.4369195,10.1370584 39.3913507,10.3948478 39.3913507,10.6708689 C39.3913507,10.9677218 39.4369195,11.2411348 39.5280586,11.4911162 C39.6191976,11.7410976 39.7480923,11.957224 39.9147466,12.1395021 C40.0814008,12.3217802 40.2806017,12.4649965 40.5123553,12.5691555 C40.7441089,12.6733144 41.0032003,12.725393 41.2896372,12.725393 C41.5396186,12.725393 41.7752746,12.7019576 41.9966123,12.6550861 C42.2179499,12.6082146 42.4145469,12.5353045 42.5864091,12.4363535 L42.5864091,11.1317698 L41.4536867,11.1317698 L41.4536867,10.2412156 L43.5707058,10.2412156 L43.5707058,13.0691157 Z M44.8323243,7.94452321 L48.4960954,7.94452321 L48.4960954,8.83507739 L45.816621,8.83507739 L45.816621,10.1943443 L48.3554816,10.1943443 L48.3554816,11.0848985 L45.816621,11.0848985 L45.816621,12.5847792 L48.6367092,12.5847792 L48.6367092,13.4753334 L44.8323243,13.4753334 L44.8323243,7.94452321 Z M50.8357531,8.83507739 L49.1405754,8.83507739 L49.1405754,7.94452321 L53.5152275,7.94452321 L53.5152275,8.83507739 L51.8200498,8.83507739 L51.8200498,13.4753334 L50.8357531,13.4753334 L50.8357531,8.83507739 Z M56.6712266,7.94452321 L57.6555233,7.94452321 L57.6555233,13.4753334 L56.6712266,13.4753334 L56.6712266,7.94452321 Z M60.0967354,8.83507739 L58.4015577,8.83507739 L58.4015577,7.94452321 L62.7762098,7.94452321 L62.7762098,8.83507739 L61.0810322,8.83507739 L61.0810322,13.4753334 L60.0967354,13.4753334 L60.0967354,8.83507739 Z M65.6587931,10.7333639 C65.6587931,10.2906886 65.7317033,9.88838086 65.8775257,9.52642867 C66.0233482,9.16447647 66.225153,8.85591035 66.4829463,8.60072103 C66.7407396,8.34553171 67.0480038,8.14893473 67.404748,8.01092418 C67.7614923,7.87291363 68.1533843,7.80390939 68.5804358,7.80390939 C69.0126952,7.79870145 69.4084931,7.86249782 69.7678414,7.99530042 C70.1271896,8.12810303 70.4370577,8.32209608 70.6974549,8.57728539 C70.9578522,8.83247471 71.160959,9.13973887 71.3067815,9.49908709 C71.452604,9.85843531 71.5255141,10.2594411 71.5255141,10.7021164 C71.5255141,11.1343759 71.452604,11.5275698 71.3067815,11.8817101 C71.160959,12.2358504 70.9578522,12.5405106 70.6974549,12.7956999 C70.4370577,13.0508893 70.1271896,13.2500902 69.7678414,13.3933087 C69.4084931,13.5365272 69.0126952,13.6107393 68.5804358,13.6159472 C68.1533843,13.6159472 67.7614923,13.546943 67.404748,13.4089324 C67.0480038,13.2709219 66.7407396,13.0756269 66.4829463,12.8230415 C66.225153,12.5704562 66.0233482,12.2670979 65.8775257,11.9129576 C65.7317033,11.5588174 65.6587931,11.1656234 65.6587931,10.7333639 Z M66.6899611,10.6708689 C66.6899611,10.9677218 66.73553,11.2411348 66.826669,11.4911162 C66.917808,11.7410976 67.0467028,11.957224 67.213357,12.1395021 C67.3800112,12.3217802 67.5792122,12.4649965 67.8109657,12.5691555 C68.0427193,12.6733144 68.3018107,12.725393 68.5882477,12.725393 C68.8746847,12.725393 69.135078,12.6733144 69.3694355,12.5691555 C69.6037931,12.4649965 69.804296,12.3217802 69.9709502,12.1395021 C70.1376045,11.957224 70.2664992,11.7410976 70.3576382,11.4911162 C70.4487773,11.2411348 70.4943461,10.9677218 70.4943461,10.6708689 C70.4943461,10.3948478 70.4487773,10.1370584 70.3576382,9.89749291 C70.2664992,9.65792743 70.1376045,9.44831078 69.9709502,9.26863667 C69.804296,9.08896255 69.6037931,8.94835014 69.3694355,8.84679521 C69.135078,8.74524028 68.8746847,8.69446357 68.5882477,8.69446357 C68.3018107,8.69446357 68.0427193,8.74524028 67.8109657,8.84679521 C67.5792122,8.94835014 67.3800112,9.08896255 67.213357,9.26863667 C67.0467028,9.44831078 66.917808,9.65792743 66.826669,9.89749291 C66.73553,10.1370584 66.6899611,10.3948478 66.6899611,10.6708689 Z M72.560588,7.94452321 L73.8651718,7.94452321 L76.5446462,12.0535715 L76.56027,12.0535715 L76.56027,7.94452321 L77.5445667,7.94452321 L77.5445667,13.4753334 L76.2946661,13.4753334 L73.5605085,9.23348321 L73.5448848,9.23348321 L73.5448848,13.4753334 L72.560588,13.4753334 L72.560588,7.94452321 Z" id="GETITON" fill="#222222" fill-rule="nonzero"></path>
    </g>
</svg>